<svg width="1020" height="437" viewBox="0 0 1020 437" fill="none" xmlns="http://www.w3.org/2000/svg">
<g clip-path="url(#clip0)">
<path d="M223.77 243.614C223.779 242.274 223.512 240.946 222.986 239.714C222.459 238.481 221.683 237.371 220.708 236.451C219.733 235.532 218.578 234.823 217.317 234.37C216.056 233.917 214.714 233.729 213.377 233.817C212.04 233.905 210.735 234.268 209.544 234.884C208.353 235.499 207.302 236.353 206.456 237.393C205.61 238.432 204.988 239.635 204.628 240.926C204.267 242.217 204.177 243.569 204.363 244.896L176.348 281.582C175.153 283.973 174.689 286.663 175.016 289.316C175.343 291.969 176.445 294.467 178.184 296.496L180.382 299.06L190.465 297.043L201.893 286.96L200.548 275.532L214.665 253.349L214.647 253.333C217.118 253.176 219.436 252.083 221.131 250.278C222.825 248.473 223.769 246.09 223.77 243.614V243.614Z" fill="#FFB9B9"/>
<path d="M30.041 422.968L25.468 405.984L88.8 380.265L95.549 405.331L30.041 422.968Z" fill="#FFB8B8"/>
<path d="M14.7441 431.732L0 376.97L0.692642 376.783C6.34562 375.261 12.3716 376.047 17.4451 378.968C22.5186 381.889 26.2241 386.706 27.7466 392.358L27.747 392.36L36.7521 425.807L14.7441 431.732Z" fill="#2F2E41"/>
<path d="M117.278 420.254L103.054 409.91L136.185 350.121L157.179 365.388L117.278 420.254Z" fill="#FFB8B8"/>
<path d="M110.879 436.681L65.0128 403.326L65.4347 402.746C68.878 398.011 74.0609 394.838 79.8435 393.925C85.626 393.012 91.5345 394.433 96.2695 397.875L96.2706 397.876L124.284 418.249L110.879 436.681Z" fill="#2F2E41"/>
<path d="M238.192 336.704L202.397 301.932C199.273 298.897 195.159 297.092 190.81 296.849C186.462 296.606 182.172 297.942 178.729 300.609L111.143 375.693L117.193 385.104L181.726 341.41L225.42 398.548L267.098 377.71L238.192 336.704Z" fill="#2F2E41"/>
<path d="M222.731 344.099L196.515 342.082L177.529 337.479C176.456 335.806 174.898 334.501 173.064 333.737C171.229 332.974 169.205 332.79 167.262 333.209C165.319 333.628 163.551 334.63 162.194 336.082C160.837 337.534 159.956 339.365 159.668 341.331C159.381 343.298 159.701 345.305 160.586 347.084C161.47 348.864 162.878 350.33 164.619 351.288C166.361 352.245 168.353 352.648 170.329 352.442C172.306 352.236 174.172 351.431 175.679 350.135L175.676 350.149L187.104 354.854L236.176 371.66L242.226 366.954L222.731 344.099Z" fill="#FFB9B9"/>
<path d="M285.92 416.699L271.131 426.11H253.653L172.315 395.86L53.332 417.371L49.971 391.826L158.871 344.099L254.326 375.693L285.92 416.699Z" fill="#2F2E41"/>
<path d="M254.326 253.349C268.805 253.349 280.542 241.611 280.542 227.132C280.542 212.653 268.805 200.916 254.326 200.916C239.847 200.916 228.109 212.653 228.109 227.132C228.109 241.611 239.847 253.349 254.326 253.349Z" fill="#FFB9B9"/>
<path d="M306 327.321C306 342.232 303.803 357.051 299.491 371.231L297.761 376.92L289.469 417.466L280.584 420L274.069 411.131L261.038 400.994L251.561 384.522L243.435 370.04L240.9 365.516L232.015 318.002L198.254 297.729L187 295.828L189.369 288.859L199.438 274.288L209.508 273.021L212.469 270.487L214.838 271.754L227.899 277.135L270.243 258L276.438 259.083L297.761 278.089C303.212 293.848 306.002 310.518 306 327.321V327.321Z" fill="#CCCCCC"/>
<path opacity="0.1" d="M314.825 325.949L289.281 342.754L251.153 377.131L248.276 372.332L240.209 331.999H242.226L263.065 293.683L314.825 325.949Z" fill="black"/>
<path d="M263.065 289.649L242.226 327.965L230.126 341.41L219.371 344.099L248.276 375.693L289.281 338.721L314.825 321.915L263.065 289.649Z" fill="#CCCCCC"/>
<path d="M234.434 207.609L234.392 206.928L233.755 207.173L231.169 208.168C230.879 207.939 230.628 207.665 230.424 207.356C230.174 206.976 230.001 206.551 229.914 206.104C229.828 205.657 229.831 205.198 229.923 204.752C230.014 204.306 230.193 203.883 230.448 203.506L230.448 203.506C230.461 203.486 230.475 203.466 230.488 203.447L231.016 202.701L230.104 202.659L225.812 202.458C229.045 198.363 233.067 194.954 237.642 192.433C242.495 189.759 247.861 188.146 253.384 187.701C258.907 187.256 264.462 187.989 269.681 189.851C274.9 191.713 279.664 194.662 283.658 198.503L284.254 199.077L284.443 198.428C284.45 198.429 284.458 198.431 284.467 198.433C284.677 198.475 285 198.614 285.387 198.852C286.156 199.325 287.012 200.083 287.494 200.819L288.107 201.755L288.217 201.345C288.465 201.812 288.766 202.509 289.087 203.359C289.842 205.36 290.66 208.095 291.085 210.35L291.944 210.38C291.981 210.44 292.021 210.52 292.058 210.622C292.275 211.21 292.33 212.26 291.733 213.306L291.224 214.197L292.228 214.05C292.24 214.058 292.267 214.081 292.302 214.131C292.39 214.255 292.479 214.475 292.532 214.776C292.639 215.381 292.568 216.109 292.306 216.591L291.579 217.93L292.831 217.342C292.858 217.466 292.875 217.663 292.858 217.937C292.814 218.679 292.542 219.69 292.077 220.49L291.592 221.324L292.268 221.264C292.301 221.411 292.33 221.625 292.349 221.911C292.396 222.609 292.373 223.634 292.244 224.879C291.987 227.366 291.316 230.676 289.989 233.923C288.662 237.172 286.692 240.328 283.855 242.547C281.101 244.702 277.503 245.997 272.807 245.608C272.171 242.664 271.931 241.221 271.662 239.565C271.652 239.499 271.641 239.434 271.63 239.368C271.356 237.682 271.037 235.714 270.247 231.748L270.218 231.607L270.12 231.503C269.34 230.675 268.49 229.924 267.66 229.192L267.654 229.187L263.141 225.203C262.091 224.277 261.061 223.307 260.022 222.328C259.77 222.091 259.517 221.853 259.264 221.616C257.968 220.4 256.651 219.187 255.275 218.063C252.523 215.816 249.516 213.904 245.92 213.013C245.569 212.927 245.232 212.845 244.907 212.767C244.102 212.574 243.377 212.4 242.733 212.206C241.827 211.933 241.164 211.643 240.732 211.268C240.328 210.92 240.105 210.483 240.112 209.822C240.119 209.127 240.383 208.174 241.026 206.845L241.6 205.658L240.383 206.166C239.259 206.635 238.171 207.21 237.106 207.773C237.027 207.814 236.949 207.856 236.87 207.897C235.988 208.363 235.119 208.815 234.236 209.202C234.245 209.158 234.254 209.113 234.264 209.068C234.274 209.019 234.284 208.97 234.294 208.919C234.375 208.521 234.461 208.061 234.434 207.609Z" fill="#2F2E41" stroke="black"/>
<path d="M267.434 234.863C270.033 234.863 272.14 232.756 272.14 230.157C272.14 227.559 270.033 225.452 267.434 225.452C264.835 225.452 262.729 227.559 262.729 230.157C262.729 232.756 264.835 234.863 267.434 234.863Z" fill="#FFB9B9"/>
<path d="M47.9976 119.022L46.5616 140.585L68.124 142.021L69.56 120.458L47.9976 119.022Z" fill="#E6E6E6"/>
<path d="M34.0857 130.472L60.2685 132.216L58.5248 158.398L32.342 156.655L34.0857 130.472ZM59.0543 133.278L35.1482 131.686L33.5562 155.592L57.4622 157.184L59.0543 133.278Z" fill="#CCCCCC"/>
<path d="M169.85 55.0837L148.722 59.6235L153.262 80.7513L174.39 76.2116L169.85 55.0837Z" fill="#E6E6E6"/>
<path d="M155.021 44.8502L160.533 70.5054L134.878 76.018L129.365 50.3627L155.021 44.8502ZM159.178 69.6297L154.145 46.2053L130.72 51.2385L135.754 74.6629L159.178 69.6297Z" fill="#CCCCCC"/>
<path d="M147.65 156.547L131.878 171.32L146.651 187.092L162.423 172.319L147.65 156.547Z" fill="#E6E6E6"/>
<path d="M163.557 154.337L144.405 172.276L126.466 153.124L145.618 135.186L163.557 154.337ZM144.458 170.663L161.944 154.285L145.565 136.798L128.079 153.177L144.458 170.663Z" fill="#CCCCCC"/>
<path d="M963.277 0H323.894C321.583 -2.62643e-06 319.295 0.455194 317.16 1.3396C315.025 2.22401 313.084 3.52029 311.45 5.15446C309.816 6.78864 308.52 8.72868 307.635 10.8638C306.751 12.999 306.296 15.2874 306.296 17.5985V373.851C306.296 376.162 306.751 378.45 307.635 380.585C308.52 382.721 309.816 384.661 311.45 386.295C313.084 387.929 315.025 389.225 317.16 390.11C319.295 390.994 321.583 391.449 323.894 391.449H963.277C967.945 391.449 972.421 389.595 975.721 386.295C979.021 382.994 980.876 378.518 980.876 373.851V17.5985C980.876 12.9311 979.021 8.45484 975.721 5.15448C972.421 1.85412 967.945 2.65217e-06 963.277 0V0Z" fill="#A5ADB0"/>
<path d="M957.281 31.1014H329.89V385.014H957.281V31.1014Z" fill="white"/>
<path d="M643.049 21.4493C646.603 21.4493 649.484 18.5683 649.484 15.0145C649.484 11.4607 646.603 8.57971 643.049 8.57971C639.496 8.57971 636.615 11.4607 636.615 15.0145C636.615 18.5683 639.496 21.4493 643.049 21.4493Z" fill="white"/>
<path d="M777.858 385.015H329.89V31.102L777.858 385.015Z" fill="#F2F2F2"/>
<path d="M428.058 358.531C461.365 358.531 488.365 331.531 488.365 298.224C488.365 264.918 461.365 237.917 428.058 237.917C394.751 237.917 367.751 264.918 367.751 298.224C367.751 331.531 394.751 358.531 428.058 358.531Z" fill="#638FFF"/>
<path d="M441.483 343.551C426.646 343.551 412.143 339.151 399.806 330.908C387.47 322.665 377.855 310.949 372.177 297.242C366.5 283.535 365.014 268.452 367.909 253.9C370.803 239.348 377.948 225.982 388.439 215.491C398.93 205 412.296 197.855 426.848 194.96C441.4 192.066 456.483 193.552 470.19 199.229C483.898 204.907 495.613 214.522 503.856 226.858C512.099 239.195 516.499 253.698 516.499 268.535C516.499 278.386 514.558 288.141 510.788 297.242C507.019 306.343 501.493 314.613 494.527 321.579C487.561 328.545 479.292 334.07 470.19 337.84C461.089 341.61 451.334 343.551 441.483 343.551V343.551ZM441.483 194.5C426.84 194.5 412.526 198.842 400.351 206.977C388.176 215.112 378.687 226.675 373.083 240.203C367.48 253.731 366.014 268.617 368.87 282.978C371.727 297.34 378.778 310.532 389.132 320.886C399.486 331.24 412.678 338.291 427.039 341.147C441.401 344.004 456.287 342.538 469.815 336.934C483.343 331.331 494.906 321.842 503.041 309.667C511.176 297.492 515.518 283.178 515.518 268.535C515.518 258.812 513.603 249.185 509.883 240.203C506.162 231.22 500.709 223.059 493.834 216.184C486.959 209.309 478.797 203.856 469.815 200.135C460.833 196.415 451.205 194.5 441.483 194.5L441.483 194.5Z" fill="#3F3D56"/>
<path d="M812.042 214.97H753.437V227.215H812.042V214.97Z" fill="#3F3D56"/>
<path d="M867.488 148.627H697.991V153.875H867.488V148.627Z" fill="#3F3D56"/>
<path d="M867.488 169.246H697.991V174.494H867.488V169.246Z" fill="#3F3D56"/>
<path d="M867.488 189.866H697.991V195.114H867.488V189.866Z" fill="#3F3D56"/>
<path d="M912.893 52.2816H888.401V76.7733H912.893V52.2816Z" fill="#638FFF"/>
<path d="M924.264 88.1445H894.524V58.4045H924.264V88.1445ZM895.818 86.8515H922.971V59.6976H895.817L895.818 86.8515Z" fill="#CCCCCC"/>
<path d="M998.007 376.446H936.778V373.57C936.778 373.495 936.755 373.421 936.711 373.352C936.667 373.283 936.603 373.22 936.522 373.167C936.44 373.114 936.344 373.072 936.238 373.043C936.132 373.015 936.018 373 935.903 373H914.91C914.795 373 914.682 373.015 914.575 373.043C914.469 373.072 914.373 373.114 914.292 373.167C914.21 373.22 914.146 373.283 914.102 373.352C914.058 373.421 914.035 373.495 914.035 373.57V376.446H900.915V373.57C900.915 373.495 900.892 373.421 900.848 373.352C900.804 373.283 900.74 373.22 900.659 373.167C900.578 373.114 900.481 373.072 900.375 373.043C900.269 373.015 900.155 373 900.04 373H879.047C878.933 373 878.819 373.015 878.713 373.043C878.606 373.072 878.51 373.114 878.429 373.167C878.348 373.22 878.283 373.283 878.239 373.352C878.195 373.421 878.173 373.495 878.173 373.57V373.57V376.446H865.052V373.57C865.052 373.495 865.029 373.421 864.986 373.352C864.942 373.283 864.877 373.22 864.796 373.167C864.715 373.114 864.618 373.072 864.512 373.043C864.406 373.015 864.292 373 864.177 373H843.184C843.07 373 842.956 373.015 842.85 373.043C842.744 373.072 842.647 373.114 842.566 373.167C842.485 373.22 842.42 373.283 842.376 373.352C842.332 373.421 842.31 373.495 842.31 373.57V373.57V376.446H829.189V373.57C829.189 373.495 829.167 373.421 829.123 373.352C829.079 373.283 829.014 373.22 828.933 373.167C828.852 373.114 828.755 373.072 828.649 373.043C828.543 373.015 828.429 373 828.315 373H807.322C807.207 373 807.093 373.015 806.987 373.043C806.881 373.072 806.784 373.114 806.703 373.167C806.622 373.22 806.557 373.283 806.513 373.352C806.47 373.421 806.447 373.495 806.447 373.57V376.446H793.326V373.57C793.326 373.495 793.304 373.421 793.26 373.352C793.216 373.283 793.151 373.22 793.07 373.167C792.989 373.114 792.893 373.072 792.786 373.043C792.68 373.015 792.567 373 792.452 373H771.459C771.344 373 771.23 373.015 771.124 373.043C771.018 373.072 770.921 373.114 770.84 373.167C770.759 373.22 770.695 373.283 770.651 373.352C770.607 373.421 770.584 373.495 770.584 373.57V373.57V376.446H757.463V373.57C757.463 373.495 757.441 373.421 757.397 373.352C757.353 373.283 757.288 373.22 757.207 373.167C757.126 373.114 757.03 373.072 756.923 373.043C756.817 373.015 756.704 373 756.589 373H735.596C735.481 373 735.367 373.015 735.261 373.043C735.155 373.072 735.059 373.114 734.977 373.167C734.896 373.22 734.832 373.283 734.788 373.352C734.744 373.421 734.721 373.495 734.721 373.57V373.57V376.446H721.601V373.57C721.601 373.495 721.578 373.421 721.534 373.352C721.49 373.283 721.426 373.22 721.344 373.167C721.263 373.114 721.167 373.072 721.061 373.043C720.954 373.015 720.841 373 720.726 373H556.281C556.167 373 556.053 373.015 555.947 373.043C555.841 373.072 555.744 373.114 555.663 373.167C555.582 373.22 555.517 373.283 555.473 373.352C555.429 373.421 555.407 373.495 555.407 373.57V373.57V376.446H542.286V373.57C542.286 373.495 542.263 373.421 542.22 373.352C542.176 373.283 542.111 373.22 542.03 373.167C541.949 373.114 541.852 373.072 541.746 373.043C541.64 373.015 541.526 373 541.411 373H520.419C520.304 373 520.19 373.015 520.084 373.043C519.978 373.072 519.881 373.114 519.8 373.167C519.719 373.22 519.654 373.283 519.61 373.352C519.566 373.421 519.544 373.495 519.544 373.57V373.57V376.446H506.423V373.57C506.423 373.495 506.401 373.421 506.357 373.352C506.313 373.283 506.248 373.22 506.167 373.167C506.086 373.114 505.989 373.072 505.883 373.043C505.777 373.015 505.663 373 505.549 373H484.556C484.441 373 484.327 373.015 484.221 373.043C484.115 373.072 484.018 373.114 483.937 373.167C483.856 373.22 483.791 373.283 483.747 373.352C483.704 373.421 483.681 373.495 483.681 373.57V373.57V376.446H470.56V373.57C470.56 373.495 470.538 373.421 470.494 373.352C470.45 373.283 470.385 373.22 470.304 373.167C470.223 373.114 470.126 373.072 470.02 373.043C469.914 373.015 469.8 373 469.686 373H448.693C448.578 373 448.464 373.015 448.358 373.043C448.252 373.072 448.155 373.114 448.074 373.167C447.993 373.22 447.928 373.283 447.885 373.352C447.841 373.421 447.818 373.495 447.818 373.57V373.57V376.446H434.697V373.57C434.697 373.495 434.675 373.421 434.631 373.352C434.587 373.283 434.522 373.22 434.441 373.167C434.36 373.114 434.264 373.072 434.157 373.043C434.051 373.015 433.938 373 433.823 373H412.83C412.715 373 412.601 373.015 412.495 373.043C412.389 373.072 412.293 373.114 412.211 373.167C412.13 373.22 412.066 373.283 412.022 373.352C411.978 373.421 411.955 373.495 411.955 373.57V373.57V376.446H398.835V373.57C398.835 373.495 398.812 373.421 398.768 373.352C398.724 373.283 398.66 373.22 398.578 373.167C398.497 373.114 398.401 373.072 398.295 373.043C398.188 373.015 398.075 373 397.96 373H376.967C376.735 373 376.512 373.06 376.348 373.167C376.184 373.274 376.092 373.419 376.092 373.57V376.446H362.972V373.57C362.972 373.495 362.949 373.421 362.905 373.352C362.861 373.283 362.797 373.22 362.715 373.167C362.634 373.114 362.538 373.072 362.432 373.043C362.326 373.015 362.212 373 362.097 373H341.104C340.872 373 340.65 373.06 340.486 373.167C340.322 373.274 340.229 373.419 340.229 373.57V376.446H299.993C294.425 376.446 289.086 377.887 285.149 380.453C281.212 383.02 279 386.5 279 390.129V396.317C279 399.946 281.212 403.426 285.149 405.992C289.086 408.558 294.425 410 299.993 410H998.007C1003.57 410 1008.91 408.558 1012.85 405.992C1016.79 403.426 1019 399.946 1019 396.317V390.129C1019 388.332 1018.46 386.553 1017.4 384.893C1016.35 383.233 1014.8 381.724 1012.85 380.453C1010.9 379.183 1008.59 378.175 1006.04 377.487C1003.49 376.8 1000.76 376.446 998.007 376.446V376.446Z" fill="#A5ADB0"/>
</g>
<defs>
<clipPath id="clip0">
<rect width="1019.48" height="436.681" fill="white"/>
</clipPath>
</defs>
</svg>
